<svg width="32" height="32" fill="none" xmlns="http://www.w3.org/2000/svg"><g clip-path="url(#clip0)"><rect width="32.029" height="32.029" rx="7" fill="#fff"/><g clip-path="url(#clip1)"><path d="M22.041 14.242c1.069.153 1.808.611 2.22 1.223.41.611.657 1.681.657 3.057 0 2.752-.904 5.045-2.712 6.803C20.396 27.083 18.096 28 15.3 28a9.41 9.41 0 01-3.205-.535c-1.069-.382-1.89-.917-2.63-1.529a8.098 8.098 0 01-1.89-2.293c-.33-.84-.576-1.681-.576-2.522 0-.917.247-1.681.658-2.216.41-.536 1.15-.841 2.054-1.07-.164-.383-.328-.689-.41-.994-.083-.23-.165-.459-.165-.612 0-.458.247-.993.822-1.528s1.068-.765 1.562-.765c.246 0 .41 0 .657.077.247.076.493.153.822.382-.74-2.293-1.48-4.204-1.89-5.503-.411-1.3-.576-2.14-.576-2.675 0-.688.165-1.223.576-1.606.328-.382.904-.611 1.561-.611 1.069 0 2.466 2.293 4.192 6.955.329.765.493 1.376.657 1.835.165-.306.33-.841.576-1.452 1.726-4.586 3.205-6.88 4.356-6.88.575 0 1.068.153 1.48.536.328.382.575.917.575 1.528 0 .459-.165 1.376-.576 2.675-.493 1.3-1.068 2.981-1.89 5.045zM9.384 20.968c.164.153.41.459.657.84.74.994 1.48 1.53 2.137 1.53.247 0 .411-.077.575-.23.165-.153.247-.306.247-.382 0-.153-.082-.459-.329-.84-.246-.383-.575-.841-.986-1.3-.493-.535-.904-.994-1.15-1.223-.33-.23-.576-.382-.74-.382-.411 0-.822.23-1.151.611-.329.383-.493.918-.493 1.453 0 .458.082.917.328 1.528.247.535.576 1.147 1.069 1.682.74.764 1.562 1.452 2.63 1.91 1.069.46 2.137.689 3.452.689 2.301 0 4.192-.765 5.754-2.37 1.561-1.605 2.3-3.592 2.3-6.038 0-.765-.081-1.3-.164-1.758-.082-.459-.328-.764-.575-.917-.493-.383-1.397-.688-2.794-.994a20.508 20.508 0 00-4.357-.458c-.41 0-.74.076-.904.229-.164.153-.246.382-.246.688 0 .764.41 1.299 1.315 1.605.904.305 2.384.535 4.356.535h.74c.164 0 .329.076.41.153.083.152.165.305.165.535-.164.153-.575.382-1.233.611-.657.23-1.068.459-1.397.688a5.19 5.19 0 00-1.726 1.758c-.411.688-.658 1.3-.658 1.91 0 .383.083.765.247 1.3.164.535.247.841.247.917v.306c-.494 0-.904-.306-1.233-.84-.33-.536-.411-1.224-.411-2.14v-.154c-.082.077-.165.153-.247.153-.082 0-.164.077-.329.077h-.328c-.082 0-.165-.077-.33-.077 0 .153.083.23.083.382v.306c0 .382-.164.765-.493 1.07-.329.306-.74.459-1.233.459-.74 0-1.48-.306-2.301-.994-.74-.688-1.151-1.3-1.151-1.987 0-.153 0-.23.082-.306 0-.382.082-.458.165-.535zm5.342.382a.923.923 0 00.575-.229.797.797 0 00.247-.535c0-.23-.164-.688-.493-1.452a11.89 11.89 0 00-1.233-2.217c-.329-.535-.74-.993-1.069-1.223a1.354 1.354 0 00-.986-.382c-.246 0-.493.153-.822.459-.329.305-.41.535-.41.84 0 .23.164.688.41 1.223.329.535.658 1.07 1.15 1.682.494.611.987 1.146 1.48 1.529.494.152.822.305 1.151.305zm1.726-7.949l-1.973-5.12c-.493-1.3-.821-2.217-1.15-2.6-.247-.382-.493-.61-.822-.61a.774.774 0 00-.575.228.947.947 0 00-.33.765c0 .535.247 1.375.658 2.598.411 1.223 1.069 2.905 1.89 4.892.083-.153.165-.23.33-.23.164-.076.328-.076.493-.076h.41c.247.077.576.077 1.07.153zm1.973 4.968c-.494 0-.987-.076-1.48-.152-.493-.077-.904-.153-1.315-.306.164.382.329.688.493 1.07.165.382.247.688.33 1.07.246-.306.574-.611.903-.917.411-.306.74-.535 1.069-.765zm2.383-4.433c.822-1.987 1.398-3.668 1.89-4.968.412-1.3.658-2.064.658-2.37 0-.305-.082-.534-.246-.764a.774.774 0 00-.576-.229c-.328 0-.657.23-.986.764-.329.535-.74 1.3-1.15 2.446l-1.809 4.74 2.22.381z" fill="#000"/></g></g><defs><clipPath id="clip0"><path fill="#fff" d="M0 0h32v32H0z"/></clipPath><clipPath id="clip1"><path fill="#fff" transform="translate(7 4)" d="M0 0h18v24H0z"/></clipPath></defs></svg>