<svg width="32" height="32" fill="none" xmlns="http://www.w3.org/2000/svg"><g clip-path="url(#clip0)"><circle cx="16" cy="16" r="16" fill="#fff"/><path fill-rule="evenodd" clip-rule="evenodd" d="M7.665 6.45h3.405v7.401c.853-1.308 2.181-2.134 3.92-2.134 2.936 0 5.12 2.598 5.12 6.285 0 3.687-2.184 6.284-5.12 6.284-1.92 0-3.296-.935-4.116-2.391v1.925h-3.21V6.45zm9.212 11.552c0 2.124-1.048 3.62-2.796 3.62-1.819 0-2.742-1.62-2.742-3.62s.99-3.62 2.742-3.62 2.796 1.495 2.796 3.62z" fill="#000"/><circle cx="23.357" cy="21.96" r="2.326" fill="#168EF9"/></g><defs><clipPath id="clip0"><path fill="#fff" d="M0 0h32v32H0z"/></clipPath></defs></svg>