<svg width="32" height="32" fill="none" xmlns="http://www.w3.org/2000/svg"><path d="M30.594 11.73h-9.621l-1.615 9.477h-6.664l-7.869 9.4c.25.216.568.337.897.34h20.884c.508.006.944-.362 1.025-.867l2.963-18.35z" fill="url(#paint0_linear)"/><path d="M1.038 2a1.023 1.023 0 00-.79.358c-.197.23-.283.538-.235.838l4.352 26.575c.054.323.219.617.467.83.25.217.567.338.897.34l8.079-9.734h-1.133l-1.779-9.477h19.705l1.384-8.523c.051-.3-.031-.607-.226-.84A1.023 1.023 0 0030.975 2H1.038z" fill="#2683FF"/><defs><linearGradient id="paint0_linear" x1="30.818" y1="16.654" x2="20.551" y2="29.225" gradientUnits="userSpaceOnUse"><stop stop-color="#0052CC"/><stop offset="1" stop-color="#2684FF"/></linearGradient></defs></svg>