<svg width="32" height="32" fill="none" xmlns="http://www.w3.org/2000/svg"><g clip-path="url(#clip0)"><path fill-rule="evenodd" clip-rule="evenodd" d="M31.478 22.412c.391.523.326 1.241-.196 1.633-.588.392-1.306.326-1.698-.196l-2.743-3.526-2.678 3.526c-.391.522-1.175.588-1.698.196-.522-.392-.653-1.11-.26-1.633l3.134-4.114-3.135-4.049c-.392-.523-.261-1.306.261-1.698.523-.392 1.307-.261 1.698.261l2.678 3.527 2.743-3.527c.392-.522 1.11-.653 1.698-.261.522.392.587 1.175.196 1.698l-3.07 4.049 3.07 4.114zm-14.302-.522c-2.025 0-3.657-1.567-3.657-3.592 0-1.96 1.632-3.592 3.657-3.592 2.024 0 3.657 1.633 3.657 3.592 0 2.025-1.633 3.592-3.657 3.592zm-10.776 0c-2.024 0-3.657-1.567-3.657-3.592 0-1.96 1.633-3.592 3.657-3.592 2.025 0 3.657 1.633 3.657 3.592 0 2.025-1.632 3.592-3.657 3.592zm10.776-9.535a6.099 6.099 0 00-5.355 3.135c-1.045-1.894-3.07-3.135-5.42-3.135-1.372 0-2.613.457-3.658 1.176V8.502a1.17 1.17 0 00-1.176-1.175c-.718 0-1.24.522-1.24 1.175v9.927c.065 3.265 2.743 5.877 6.073 5.877a6.183 6.183 0 005.42-3.2c1.045 1.894 3.07 3.2 5.356 3.2 3.396 0 6.138-2.677 6.138-6.008 0-3.265-2.742-5.943-6.138-5.943z" fill="#2562D8"/></g><defs><clipPath id="clip0"><path fill="#fff" transform="translate(0 7)" d="M0 0h32v17.633H0z"/></clipPath></defs></svg>