<svg width="32" height="32" fill="none" xmlns="http://www.w3.org/2000/svg"><g clip-path="url(#clip0)"><path fill="#fff" d="M10.666 2h18v30h-18z"/><path fill-rule="evenodd" clip-rule="evenodd" d="M17.092 32H1.767a1.767 1.767 0 01-1.766-1.767V1.767A1.766 1.766 0 011.768 0h28.467a1.766 1.766 0 011.766 1.767v28.466A1.767 1.767 0 0130.235 32H22.08V19.608h4.16l.623-4.83H22.08v-3.083c0-1.398.389-2.351 2.394-2.351l2.557-.001v-4.32c-.442-.058-1.96-.19-3.727-.19-3.686 0-6.211 2.251-6.211 6.384v3.562h-4.17v4.829h4.17V32z" fill="#4460A0"/></g><defs><clipPath id="clip0"><path fill="#fff" d="M0 0h32v32H0z"/></clipPath></defs></svg>