<svg width="33" height="33" fill="none" xmlns="http://www.w3.org/2000/svg"><rect width="32.029" height="32.029" rx="7" fill="#fff"/><g opacity=".6" fill="#2E3134"><path d="M13.043 22.231H6.927a.954.954 0 00-.954.954v2.15c0 .527.427.954.954.954h6.116a.954.954 0 00.954-.954v-2.15a.954.954 0 00-.954-.954zM25.074 22.231h-6.11a.954.954 0 00-.955.954v2.15c0 .527.427.954.954.954h6.111a.954.954 0 00.954-.954v-2.15a.954.954 0 00-.954-.954zM25.077 14.116H6.92a.954.954 0 00-.954.954v2.15c0 .527.427.954.954.954h18.156a.954.954 0 00.954-.954v-2.15a.954.954 0 00-.954-.954zM17.057 6H6.927a.954.954 0 00-.953.954v2.15c0 .527.427.954.954.954h10.129a.954.954 0 00.954-.954v-2.15A.954.954 0 0017.057 6zM25.08 6h-2.104a.954.954 0 00-.954.954v2.15c0 .527.427.954.954.954h2.103a.954.954 0 00.954-.954v-2.15A.954.954 0 0025.08 6z"/></g></svg>