<svg width="32" height="32" fill="none" xmlns="http://www.w3.org/2000/svg"><path fill-rule="evenodd" clip-rule="evenodd" d="M32 16c0 8.836-7.163 16-16 16-8.836 0-16-7.164-16-16C0 7.162 7.164 0 16 0c8.837 0 16 7.163 16 16z" fill="#15C39A"/><path fill-rule="evenodd" clip-rule="evenodd" d="M19.157 18.168c-.665 0-1.19.6-1.066 1.287.095.523.588.882 1.12.882h1.676l.972-.136c-1.555 2.28-4.255 3.33-7.207 2.867-2.403-.377-4.466-2.003-5.337-4.273C7.338 13.641 11.102 8.72 16.007 8.72c2.557 0 4.797 1.496 6.084 3.304v.04c.341.49 1.018.632 1.51.29a1.07 1.07 0 00.315-1.424h.008a9.387 9.387 0 00-8.566-4.311c-4.678.314-8.464 4.142-8.734 8.823-.312 5.447 4.009 9.895 9.383 9.895a9.302 9.302 0 007.072-3.219l-.204 1.142v1.03c0 .531.358 1.025.882 1.12a1.084 1.084 0 001.287-1.067v-6.175h-5.887z" fill="#fff"/></svg>