<svg width="33" height="33" fill="none" xmlns="http://www.w3.org/2000/svg"><rect width="32.029" height="32.029" rx="7" fill="#fff"/><path fill-rule="evenodd" clip-rule="evenodd" d="M15.307 29c6.417 0 11.583-5.417 11.583-12 0-.667-.083-1.25-.166-1.833v.583c0 5.833-4.584 10.5-10.167 10.5A9.954 9.954 0 0110.224 24c-.834.667-1.334 1.167-3 1.75 2.166 2 5 3.25 8.083 3.25zM6.39 15.75c0-5.833 4.583-10.5 10.166-10.5.5 0 .917.083 1.417.083-.917-.25-1.833-.333-2.75-.333C8.89 5 3.64 10.417 3.64 17c0 1.583.333 3.083.75 4.417.666-.75 1.833-1.5 2.666-1.917-.5-1.167-.666-2.417-.666-3.75z" fill="#17202D"/><path fill-rule="evenodd" clip-rule="evenodd" d="M13.223 13.833c-2.083-.75-4-.166-4.916.25 1.5.75 2.333 1.667 2.916 2.5.584-.916 1.834-2.5 2-2.75zM17.307 19.75c0-.25-.084-.5-.084-.833-.416.333-1.25.833-2.166 1.333-.084.083-.25.083-.417.167-.25.083-.417.166-.667.333-.083 0-.083 0-.166.083 0 .084.083.167.083.25 0 .084.083.167.083.25 0 .084.084.167.084.25.083.167.083.334.166.584 0 .083.084.25.084.333 0 .083.083.25.083.333.167.584.25 1.334.25 2v.5c.833-.583 2.583-2.083 2.583-4.916v-.167-.167c.084-.166.084-.25.084-.333z" fill="#17202D"/><path fill-rule="evenodd" clip-rule="evenodd" d="M27.973 6.667c.666 0 1.166.166 1.5.25-2.334 6-6.75 9.5-10.084 11.416-.416.25-.75.417-1.083.584 0-.334-.167-1-.25-1.5 0-.084-.167-.167-.25-.084-1.5 1.167-2.917 2-5 2.834-.083.083-.167.166-.083.333.083.083.166.25.166.417-.416.083-.916.25-1.083.25-.083-.667-.583-1.5-1.083-1.834.166-.333.5-.916.75-1.333.083-.083.083-.167.166-.333.084-.084.084-.167.167-.25.667-.917 1.417-2.084 2.417-3.25.083-.084.166-.167.166-.25.084-.084.167-.167.167-.25C16.389 11.5 18.723 9.25 21.056 8c1.583-.833 3.167-1.333 4.833-1.5-.333.583-.916 1.417-2 2.417L23.806 9c-.083.083-.083.167-.083.25 0 .333.25.667.5.833.416.334.833.417 1.166.167l.084-.083c1.25-.834 2.083-2.167 2.5-3.5zM18.139 16.5c.584 0 1-.5 1-1.083 0-.584-.5-1.084-1-1.084-.583 0-1 .5-1 1.084-.083.583.417 1.083 1 1.083zm2.25-1.833c-.583 0-1-.5-1-1.084 0-.583.5-1.083 1-1.083.584 0 1 .5 1 1.083.084.667-.416 1.084-1 1.084zm2.25-1.75c-.583 0-1-.5-1-1.084 0-.583.417-1.083 1-1.083.584 0 1 .5 1 1.083 0 .584-.416 1.084-1 1.084zM9.723 19.917c.584 0 1.084 1.083 1.084 1.416 0 .334-.167.917-1.167 1.917-.833.833-2 1.333-3.083 1.667-1.75.5-3.584.666-4.5.666 1.083-1.333 2-2.416 2.833-3.166 1-1 1.917-1.584 2.583-1.917 1.25-.667 2-.583 2.25-.583-.083 0-.083 0 0 0zm-.166 1.25l.25-.25c0-.084-.084-.084-.084-.167-.416-.5-1.666 0-2.25.333-1 .584-1.916 1.584-2.25 2-.083.084-.083.167-.083.167s.083-.083.167-.083c.416-.417 1.583-1.417 2.416-1.667.084 0-.5 1.5-.5 1.5s1.334-.917 1.334-1c.25-.167.416-.333.583-.5.083-.083.167-.167.25-.167a.18.18 0 01.167-.166z" fill="#17202D"/></svg>