<svg width="32" height="32" fill="none" xmlns="http://www.w3.org/2000/svg"><path d="M32 14.325h-9.748l8.442-4.874-1.674-2.902-8.443 4.875 4.873-8.443-2.9-1.674-4.875 8.44V0h-3.35v9.748L9.45 1.307 6.549 2.98l4.873 8.44-8.44-4.872-1.676 2.902 8.442 4.874H0v3.35h9.747l-8.44 4.875 1.673 2.902 8.443-4.875L6.55 29.02l2.9 1.674 4.876-8.441V32h3.35v-9.956l4.964 8.597 2.72-1.57-4.965-8.6 8.623 4.98 1.676-2.902-8.441-4.874h9.747v-3.35H32zm-16 6.23a4.554 4.554 0 01-3.221-7.777 4.552 4.552 0 017.775 3.22A4.557 4.557 0 0116 20.555z" fill="#645EF9"/></svg>