<svg width="32" height="32" fill="none" xmlns="http://www.w3.org/2000/svg"><g clip-path="url(#clip0)"><rect width="32.029" height="32" rx="5" fill="#000"/><path d="M10.96 22.565c3.601 0 6.52-2.94 6.52-6.565 0-3.626-2.919-6.565-6.52-6.565-3.6 0-6.52 2.938-6.52 6.565 0 3.627 2.919 6.565 6.52 6.565zM21.373 22.18c1.8 0 3.26-2.767 3.26-6.18 0-3.412-1.46-6.18-3.26-6.18-1.8 0-3.26 2.768-3.26 6.18s1.46 6.18 3.26 6.18zM26.413 21.537c.633 0 1.146-2.479 1.146-5.537s-.513-5.537-1.146-5.537c-.634 0-1.147 2.48-1.147 5.537s.513 5.537 1.147 5.537z" fill="#fff"/></g><defs><clipPath id="clip0"><path fill="#fff" d="M0 0h32v32H0z"/></clipPath></defs></svg>