<svg width="32" height="32" fill="none" xmlns="http://www.w3.org/2000/svg"><g clip-path="url(#clip0)"><rect width="32.029" height="32" rx="5" fill="#F8F8F8"/><path d="M13.525 13.391c0-3.56 1.944-4.827 3.763-4.827 2.231 0 3.73 1.925 3.73 4.794 0 3.272-1.907 4.733-3.793 4.733-2.544 0-3.7-2.439-3.7-4.7zm4.659-9.016c-2.654 0-4.19 1.194-4.931 2.018-.089-.71-.556-1.632-2.382-1.632H6.906v4.155h1.625c.276 0 .365.088.365.363v18.976h4.725v-7.122c0-.192-.004-.372-.009-.532.738.677 2.148 1.613 4.35 1.613 4.62 0 7.85-3.667 7.85-8.919 0-5.335-3.067-8.92-7.628-8.92z" fill="#25292C"/></g><defs><clipPath id="clip0"><path fill="#fff" d="M0 0h32v32H0z"/></clipPath></defs></svg>