<svg width="32" height="32" fill="none" xmlns="http://www.w3.org/2000/svg"><g clip-path="url(#clip0)"><rect width="32.029" height="32" rx="5" fill="#fff"/><path d="M4.857 6.9c0-1.129.914-2.043 2.042-2.043h7.987c1.128 0 2.042.914 2.042 2.042v1.58c0 .564-.457 1.021-1.02 1.021H5.877a1.021 1.021 0 01-1.021-1.021v-1.58zM4.857 13.307c0-.564.457-1.021 1.02-1.021h19.224c1.127 0 2.042.914 2.042 2.042v5.294a1.02 1.02 0 01-1.021 1.02H6.899a2.042 2.042 0 01-2.042-2.041v-5.294zM15.071 24.45c0-.564.457-1.021 1.021-1.021h10.03c.564 0 1.02.457 1.02 1.02v.652a2.042 2.042 0 01-2.041 2.042h-7.988a2.042 2.042 0 01-2.042-2.042v-.651z" fill="#2C2C2C"/></g><defs><clipPath id="clip0"><path fill="#fff" d="M0 0h32v32H0z"/></clipPath></defs></svg>