<svg width="33" height="33" fill="none" xmlns="http://www.w3.org/2000/svg"><rect width="32.029" height="32.029" rx="16.014" fill="#5C4378"/><path d="M17.515 6.977a1.78 1.78 0 00-3.05 0l-2.507 4.296a12.277 12.277 0 016.765 10.161h-1.76a10.55 10.55 0 00-5.893-8.66l-2.322 4.014a6.068 6.068 0 013.519 4.639H8.223a.29.29 0 01-.237-.423l1.12-1.906a4.093 4.093 0 00-1.28-.724l-1.109 1.905a1.73 1.73 0 00.644 2.379c.263.148.56.227.862.229h5.538a7.395 7.395 0 00-3.05-6.598l.88-1.525a9.098 9.098 0 013.927 8.123h4.692a13.677 13.677 0 00-6.255-12.121l1.78-3.05a.294.294 0 01.4-.102c.202.11 7.734 13.252 7.875 13.405a.29.29 0 01-.26.43h-1.814c.023.486.023.97 0 1.453h1.822a1.75 1.75 0 001.525-2.626L17.515 6.977z" fill="#fff"/></svg>