<svg width="32" height="32" fill="none" xmlns="http://www.w3.org/2000/svg"><g clip-path="url(#clip0)"><rect width="32.029" height="32" rx="5" fill="#0C305B"/><path d="M11.665 14.372s.726-1.1 1.716-1.1c1.497-.045 2.729 2.772 2.949 3.168 1.672-3.873 4.445-7.151 6.69-9.33H9.155v15.998c0 .616-.066 1.188-.176 1.782 1.805-.308 3.587-.748 5.304-1.364 4.202-1.563 5.853-3.213 5.853-3.213l.11-.11.066.132c.264.66.66 1.254 1.056 1.848.572.726.88.792 1.1.726.242-.066.374-.484.44-1.122.066-.66.11-2.09.11-3.873V8.342c-4.026 5.171-7.041 12.917-7.041 12.917s-2.002-6.91-4.313-6.887z" fill="#fff"/></g><defs><clipPath id="clip0"><path fill="#fff" d="M0 0h32v32H0z"/></clipPath></defs></svg>