<svg width="33" height="33" fill="none" xmlns="http://www.w3.org/2000/svg"><rect width="32.029" height="32.029" rx="6" fill="#fff"/><g clip-path="url(#clip0)" fill="#202020"><path d="M22.996 5.494H9.006a3.512 3.512 0 00-3.513 3.512v13.99a3.512 3.512 0 003.512 3.512h13.991a3.512 3.512 0 003.512-3.512V9.006a3.51 3.51 0 00-3.512-3.512zm-.308 16.086a1.108 1.108 0 01-1.108 1.108H10.423a1.106 1.106 0 01-1.108-1.108V10.424a1.109 1.109 0 011.108-1.108h11.155a1.108 1.108 0 011.108 1.108V21.58z"/><path d="M13.77 18.867a.638.638 0 01-.635-.64v-4.453c0-.352.284-.639.636-.639h4.46c.352 0 .635.287.635.64v4.452c0 .353-.283.64-.636.64h-4.46z"/></g><defs><clipPath id="clip0"><path fill="#fff" transform="translate(5.493 5.494)" d="M0 0h21.013v21.013H0z"/></clipPath></defs></svg>