<svg width="33" height="33" fill="none" xmlns="http://www.w3.org/2000/svg"><rect width="32.029" height="32.029" rx="16.014" fill="#0D0D0E"/><path fill-rule="evenodd" clip-rule="evenodd" d="M15.652 5.815a.557.557 0 01.696 0l8.113 6.5a.557.557 0 010 .87L20.947 16l3.514 2.816a.557.557 0 010 .868l-8.113 6.5a.556.556 0 01-.696 0l-8.113-6.5a.557.557 0 010-.868L11.053 16 7.54 13.184a.557.557 0 010-.868l8.113-6.5zm7.57 6.935l-3.166 2.537-3.708-2.971a.557.557 0 00-.696 0l-3.708 2.97-3.167-2.536L16 6.963l7.223 5.787zM16 13.463L12.834 16 16 18.537 19.166 16 16 13.463zm-.348 6.221l-3.708-2.97-3.167 2.536L16 25.037l6.53-5.232h-6.489a.556.556 0 01-.389-.12zm1.935-.992h4.94l-2.47-1.979-2.47 1.979z" fill="#fff"/></svg>