<svg width="33" height="33" fill="none" xmlns="http://www.w3.org/2000/svg"><rect width="32.029" height="32.029" rx="6" fill="#fff"/><path d="M17.432 13.642a1.61 1.61 0 01.518-.312c.274-.1.533-.238.769-.41h0l.002-.002c.288-.213.464-.47.559-.784.088-.292.102-.622.102-.969v-.396l-.396-.01-.01.406.01-.406h0-.04a4.048 4.048 0 00-.41.018c-.235.023-.577.075-.849.218-.338.178-.59.433-.742.839-.142.376-.191.866-.191 1.506v.91l.678-.608zM14.551 11.345l-.007.006-.008.007a2.378 2.378 0 00-.655 1.156L12.88 16.39l-.757-2.881a4.198 4.198 0 00-.703-1.598l-.007-.009-.007-.009c-.282-.348-.693-.51-.998-.59a2.845 2.845 0 00-.65-.09c-.069 0-.335.01-.647.09-.305.08-.713.242-.998.588l-.008.01-.007.01a4.197 4.197 0 00-.704 1.597l-.758 2.884-1.001-3.876a2.366 2.366 0 00-.654-1.157l-.007-.007-.008-.006c-.426-.376-.942-.511-1.325-.559a3.254 3.254 0 00-.677-.012l-.013.002h-.007 0l.051.404-.052-.403-.46.059.12.448 2.666 10.074.074.28.29.02.029-.405-.03.406H5.646l.033.003.116.004c.096.003.23.004.38-.002.278-.013.686-.054.99-.21.306-.156.592-.323.836-.67.23-.328.402-.787.584-1.481h0l.001-.008a694.284 694.284 0 011.065-4.336l.107-.423c.097.378.27 1.082.464 1.865l.092.373c.24.974.49 1.983.628 2.526.177.694.348 1.155.578 1.483.245.35.534.516.842.671.305.156.713.197.991.21a5.273 5.273 0 00.496-.002l.033-.002h.009l.003-.001h.001l-.03-.405.03.405.29-.021.074-.28 2.656-10.075.118-.447-.459-.06-.052.404.052-.403h0-.003l-.004-.001-.013-.002a2.247 2.247 0 00-.19-.012c-.123-.003-.293 0-.487.024-.383.048-.9.183-1.326.559zM9.85 14.203l.004-.015v-.001l.001-.002.016-.056a.523.523 0 01.033-.086s-.006.01-.021.022a.194.194 0 01-.246 0 .105.105 0 01-.021-.022l.004.008c.008.016.017.04.028.078l.017.058h0l.005.017v.002l.015.05.07-.023h.005l.09-.03h0zm6.623-2.62s0 0 0 0h0z" fill="#000" stroke="#fff" stroke-width=".813"/><path d="M19.382 12.825l.007-1.234-.739.989a1.25 1.25 0 01-.413.355h0l-.005.003c-.147.08-.276.14-.424.206-.086.039-.18.08-.285.132h0-.002c-.244.119-.448.266-.585.472a1.15 1.15 0 00-.182.659v7.204l.355.045.051-.403-.05.403h.004l.008.002.029.003.096.007c.08.005.19.01.317.006.243-.008.593-.045.894-.198h0c.326-.166.598-.369.754-.76.136-.343.166-.8.168-1.416V13.198l.002-.373z" fill="#000" stroke="#fff" stroke-width=".813"/><path d="M26.586 11.327c-.373.37-.71.775-1.006 1.21l-1.176 1.692-1.174-1.692v-.001a8.502 8.502 0 00-1.007-1.209l-.006-.006-.007-.006c-.462-.422-1.119-.528-1.587-.549a4.79 4.79 0 00-.865.041l-.016.002-.004.001h-.002 0l.066.401-.067-.4-.622.104.352.523 3.23 4.802-3.22 4.786-.368.548.655.082.05-.403-.05.403h.002l.005.001.016.002a3.107 3.107 0 00.25.02c.163.007.388.011.639-.007.478-.035 1.146-.156 1.605-.575l.006-.005.005-.005a7.12 7.12 0 00.941-1.143l1.173-1.69 1.176 1.694h0a7.9 7.9 0 00.966 1.14h0l.01.01c.459.417 1.119.539 1.592.574a5.136 5.136 0 00.877-.013l.016-.002h.007l-.051-.404.051.403.652-.084-.366-.546-3.213-4.786 3.221-4.802.35-.521-.619-.106-.068.4.068-.4h0-.003l-.004-.001-.016-.003a3.39 3.39 0 00-.244-.028 4.758 4.758 0 00-.62-.015c-.47.021-1.126.127-1.588.551l-.006.006-.006.006zm-6.717.285h0z" fill="#000" stroke="#fff" stroke-width=".813"/></svg>