<svg width="33" height="33" fill="none" xmlns="http://www.w3.org/2000/svg"><rect width="32.029" height="32.029" rx="6" fill="#1E6189"/><path d="M5.474 16c0 4.171 2.426 7.764 5.935 9.472l-5.02-13.755A10.489 10.489 0 005.473 16zM16 26.526a10.64 10.64 0 003.5-.597l-.075-.14-3.238-8.865-3.155 9.173c.934.28 1.932.43 2.968.43zm1.446-15.463l3.808 11.32 1.054-3.509c.448-1.456.793-2.5.793-3.406 0-1.306-.466-2.202-.858-2.893-.541-.877-1.036-1.614-1.036-2.473 0-.97.728-1.866 1.773-1.866h.13A10.489 10.489 0 0016 5.474a10.517 10.517 0 00-8.79 4.74l.671.019c1.101 0 2.8-.14 2.8-.14.578-.028.644.803.075.868 0 0-.57.075-1.214.102l3.845 11.404 2.305-6.906-1.642-4.498c-.368-.02-.736-.05-1.102-.093-.569-.037-.504-.905.066-.877 0 0 1.736.14 2.771.14 1.102 0 2.8-.14 2.8-.14.57-.028.644.803.075.868 0 0-.57.065-1.214.102zM21.291 25.1a10.526 10.526 0 003.947-14.148 9.938 9.938 0 01-.727 4.853l-3.22 9.295zM16 28.13A12.131 12.131 0 1116 3.87a12.131 12.131 0 010 24.262z" fill="#fff"/></svg>